<mxfile host="app.diagrams.net">
  <diagram name="セル実行フロー" id="cell-flow">
    <mxGraphModel dx="1422" dy="794" grid="1" gridSize="10" guides="1" tooltips="1" connect="1" arrows="1" fold="1" page="1" pageScale="1" pageWidth="1400" pageHeight="900" background="#ffffff">
      <root>
        <mxCell id="0"/>
        <mxCell id="1" parent="0"/>

        <!-- Title -->
        <mxCell id="title" value="セル単位実行で即座にデバッグ・修正が可能" style="text;html=1;strokeColor=none;fillColor=none;align=center;verticalAlign=middle;whiteSpace=wrap;rounded=0;fontSize=28;fontStyle=1;fontColor=#00AA00;" vertex="1" parent="1">
          <mxGeometry x="200" y="30" width="1000" height="50" as="geometry"/>
        </mxCell>

        <!-- Step 1: Write Code -->
        <mxCell id="step1-box" value="" style="rounded=1;whiteSpace=wrap;html=1;fillColor=#dae8fc;strokeColor=#6c8ebf;strokeWidth=3;" vertex="1" parent="1">
          <mxGeometry x="100" y="150" width="300" height="150" as="geometry"/>
        </mxCell>
        <mxCell id="step1-icon" value="✍️" style="text;html=1;strokeColor=none;fillColor=none;align=center;verticalAlign=middle;whiteSpace=wrap;rounded=0;fontSize=60;" vertex="1" parent="1">
          <mxGeometry x="200" y="170" width="100" height="60" as="geometry"/>
        </mxCell>
        <mxCell id="step1-title" value="STEP 1" style="text;html=1;strokeColor=none;fillColor=none;align=center;verticalAlign=middle;whiteSpace=wrap;rounded=0;fontSize=16;fontStyle=1;fontColor=#6c8ebf;" vertex="1" parent="1">
          <mxGeometry x="120" y="240" width="260" height="20" as="geometry"/>
        </mxCell>
        <mxCell id="step1-text" value="コード記述" style="text;html=1;strokeColor=none;fillColor=none;align=center;verticalAlign=middle;whiteSpace=wrap;rounded=0;fontSize=18;fontStyle=1;" vertex="1" parent="1">
          <mxGeometry x="120" y="265" width="260" height="25" as="geometry"/>
        </mxCell>

        <!-- Step 2: Run Cell -->
        <mxCell id="step2-box" value="" style="rounded=1;whiteSpace=wrap;html=1;fillColor=#d5e8d4;strokeColor=#82b366;strokeWidth=3;" vertex="1" parent="1">
          <mxGeometry x="550" y="150" width="300" height="150" as="geometry"/>
        </mxCell>
        <mxCell id="step2-icon" value="⚡" style="text;html=1;strokeColor=none;fillColor=none;align=center;verticalAlign=middle;whiteSpace=wrap;rounded=0;fontSize=60;" vertex="1" parent="1">
          <mxGeometry x="650" y="170" width="100" height="60" as="geometry"/>
        </mxCell>
        <mxCell id="step2-title" value="STEP 2" style="text;html=1;strokeColor=none;fillColor=none;align=center;verticalAlign=middle;whiteSpace=wrap;rounded=0;fontSize=16;fontStyle=1;fontColor=#82b366;" vertex="1" parent="1">
          <mxGeometry x="570" y="240" width="260" height="20" as="geometry"/>
        </mxCell>
        <mxCell id="step2-text" value="セル実行（数秒）" style="text;html=1;strokeColor=none;fillColor=none;align=center;verticalAlign=middle;whiteSpace=wrap;rounded=0;fontSize=18;fontStyle=1;" vertex="1" parent="1">
          <mxGeometry x="570" y="265" width="260" height="25" as="geometry"/>
        </mxCell>

        <!-- Step 3: Check Result -->
        <mxCell id="step3-box" value="" style="rounded=1;whiteSpace=wrap;html=1;fillColor=#fff2cc;strokeColor=#d6b656;strokeWidth=3;" vertex="1" parent="1">
          <mxGeometry x="1000" y="150" width="300" height="150" as="geometry"/>
        </mxCell>
        <mxCell id="step3-icon" value="📊" style="text;html=1;strokeColor=none;fillColor=none;align=center;verticalAlign=middle;whiteSpace=wrap;rounded=0;fontSize=60;" vertex="1" parent="1">
          <mxGeometry x="1100" y="170" width="100" height="60" as="geometry"/>
        </mxCell>
        <mxCell id="step3-title" value="STEP 3" style="text;html=1;strokeColor=none;fillColor=none;align=center;verticalAlign=middle;whiteSpace=wrap;rounded=0;fontSize=16;fontStyle=1;fontColor=#d6b656;" vertex="1" parent="1">
          <mxGeometry x="1020" y="240" width="260" height="20" as="geometry"/>
        </mxCell>
        <mxCell id="step3-text" value="結果確認（即座）" style="text;html=1;strokeColor=none;fillColor=none;align=center;verticalAlign=middle;whiteSpace=wrap;rounded=0;fontSize=18;fontStyle=1;" vertex="1" parent="1">
          <mxGeometry x="1020" y="265" width="260" height="25" as="geometry"/>
        </mxCell>

        <!-- Arrows -->
        <mxCell id="arrow1" value="" style="shape=flexArrow;endArrow=classic;html=1;strokeWidth=3;fillColor=#6c8ebf;strokeColor=#6c8ebf;width=20;endSize=6;" edge="1" parent="1">
          <mxGeometry width="50" height="50" relative="1" as="geometry">
            <mxPoint x="420" y="224.5" as="sourcePoint"/>
            <mxPoint x="530" y="224.5" as="targetPoint"/>
          </mxGeometry>
        </mxCell>

        <mxCell id="arrow2" value="" style="shape=flexArrow;endArrow=classic;html=1;strokeWidth=3;fillColor=#82b366;strokeColor=#82b366;width=20;endSize=6;" edge="1" parent="1">
          <mxGeometry width="50" height="50" relative="1" as="geometry">
            <mxPoint x="870" y="224.5" as="sourcePoint"/>
            <mxPoint x="980" y="224.5" as="targetPoint"/>
          </mxGeometry>
        </mxCell>

        <!-- Conditional: Error or Success -->
        <mxCell id="decision-box" value="エラー発生？" style="rhombus;whiteSpace=wrap;html=1;fillColor=#f8cecc;strokeColor=#b85450;strokeWidth=3;fontSize=18;fontStyle=1;" vertex="1" parent="1">
          <mxGeometry x="600" y="450" width="200" height="150" as="geometry"/>
        </mxCell>

        <!-- Error Path -->
        <mxCell id="error-box" value="" style="rounded=1;whiteSpace=wrap;html=1;fillColor=#ffcccc;strokeColor=#CC0000;strokeWidth=3;" vertex="1" parent="1">
          <mxGeometry x="100" y="450" width="300" height="150" as="geometry"/>
        </mxCell>
        <mxCell id="error-icon" value="🔧" style="text;html=1;strokeColor=none;fillColor=none;align=center;verticalAlign=middle;whiteSpace=wrap;rounded=0;fontSize=60;" vertex="1" parent="1">
          <mxGeometry x="200" y="470" width="100" height="60" as="geometry"/>
        </mxCell>
        <mxCell id="error-text" value="該当セルのみ修正&lt;br&gt;変数状態は保持" style="text;html=1;strokeColor=none;fillColor=none;align=center;verticalAlign=middle;whiteSpace=wrap;rounded=0;fontSize=16;fontStyle=1;" vertex="1" parent="1">
          <mxGeometry x="120" y="540" width="260" height="40" as="geometry"/>
        </mxCell>

        <!-- Success Path -->
        <mxCell id="success-box" value="" style="rounded=1;whiteSpace=wrap;html=1;fillColor=#d5e8d4;strokeColor=#82b366;strokeWidth=3;" vertex="1" parent="1">
          <mxGeometry x="1000" y="450" width="300" height="150" as="geometry"/>
        </mxCell>
        <mxCell id="success-icon" value="🎉" style="text;html=1;strokeColor=none;fillColor=none;align=center;verticalAlign=middle;whiteSpace=wrap;rounded=0;fontSize=60;" vertex="1" parent="1">
          <mxGeometry x="1100" y="470" width="100" height="60" as="geometry"/>
        </mxCell>
        <mxCell id="success-text" value="次のセルへ進む&lt;br&gt;または可視化" style="text;html=1;strokeColor=none;fillColor=none;align=center;verticalAlign=middle;whiteSpace=wrap;rounded=0;fontSize=16;fontStyle=1;" vertex="1" parent="1">
          <mxGeometry x="1020" y="540" width="260" height="40" as="geometry"/>
        </mxCell>

        <!-- Decision Arrows -->
        <mxCell id="arrow-down" value="" style="endArrow=classic;html=1;strokeWidth=3;strokeColor=#d6b656;" edge="1" parent="1" source="step3-box" target="decision-box">
          <mxGeometry width="50" height="50" relative="1" as="geometry">
            <mxPoint x="700" y="400" as="sourcePoint"/>
            <mxPoint x="750" y="350" as="targetPoint"/>
          </mxGeometry>
        </mxCell>

        <mxCell id="arrow-error" value="YES" style="endArrow=classic;html=1;strokeWidth=3;strokeColor=#CC0000;labelBackgroundColor=#ffffff;fontSize=14;fontStyle=1;" edge="1" parent="1" source="decision-box" target="error-box">
          <mxGeometry x="0" y="0" relative="1" as="geometry">
            <mxPoint as="offset"/>
          </mxGeometry>
        </mxCell>

        <mxCell id="arrow-success" value="NO" style="endArrow=classic;html=1;strokeWidth=3;strokeColor=#82b366;labelBackgroundColor=#ffffff;fontSize=14;fontStyle=1;" edge="1" parent="1" source="decision-box" target="success-box">
          <mxGeometry x="0" y="0" relative="1" as="geometry">
            <mxPoint as="offset"/>
          </mxGeometry>
        </mxCell>

        <!-- Return Arrow from Error -->
        <mxCell id="arrow-return" value="再実行" style="curved=1;endArrow=classic;html=1;strokeWidth=3;strokeColor=#CC0000;exitX=0.5;exitY=0;exitDx=0;exitDy=0;entryX=0.5;entryY=1;entryDx=0;entryDy=0;labelBackgroundColor=#ffffff;fontSize=14;fontStyle=1;" edge="1" parent="1" source="error-box" target="step1-box">
          <mxGeometry relative="1" as="geometry">
            <Array as="points">
              <mxPoint x="250" y="380"/>
            </Array>
          </mxGeometry>
        </mxCell>

        <!-- Summary -->
        <mxCell id="summary-box" value="トライアンドエラーが高速化！問題箇所だけ修正して即座に再実行" style="rounded=1;whiteSpace=wrap;html=1;fillColor=#e1d5e7;strokeColor=#9673a6;fontSize=20;fontStyle=1;align=center;strokeWidth=3;" vertex="1" parent="1">
          <mxGeometry x="300" y="700" width="800" height="80" as="geometry"/>
        </mxCell>

      </root>
    </mxGraphModel>
  </diagram>
</mxfile>
